<?xml version="1.0" encoding="UTF-8" standalone="no"?>
<svg
   xmlns:dc="http://purl.org/dc/elements/1.1/"
   xmlns:cc="http://creativecommons.org/ns#"
   xmlns:rdf="http://www.w3.org/1999/02/22-rdf-syntax-ns#"
   xmlns:svg="http://www.w3.org/2000/svg"
   xmlns="http://www.w3.org/2000/svg"
   xmlns:sodipodi="http://sodipodi.sourceforge.net/DTD/sodipodi-0.dtd"
   xmlns:inkscape="http://www.inkscape.org/namespaces/inkscape"
   id="Capa_1"
   data-name="Capa 1"
   width="75.5mm"
   height="92.099998mm"
   viewBox="0 0 214.00966 261.15376"
   version="1.1"
   sodipodi:docname="logo-pucv.svg"
   inkscape:version="0.92.4 (fd57863, 2020-04-02)">
  <metadata
     id="metadata249">
    <rdf:RDF>
      <cc:Work
         rdf:about="">
        <dc:format>image/svg+xml</dc:format>
        <dc:type
           rdf:resource="http://purl.org/dc/dcmitype/StillImage" />
        <dc:title>logo-pucv</dc:title>
      </cc:Work>
    </rdf:RDF>
  </metadata>
  <sodipodi:namedview
     pagecolor="#ffffff"
     bordercolor="#666666"
     borderopacity="1"
     objecttolerance="10"
     gridtolerance="10"
     guidetolerance="10"
     inkscape:pageopacity="0"
     inkscape:pageshadow="2"
     inkscape:window-width="1920"
     inkscape:window-height="1016"
     id="namedview247"
     showgrid="false"
     inkscape:zoom="0.94858025"
     inkscape:cx="241.56829"
     inkscape:cy="78.630641"
     inkscape:window-x="0"
     inkscape:window-y="27"
     inkscape:window-maximized="1"
     inkscape:current-layer="Capa_1" />
  <defs
     id="defs4">
    <style
       id="style2">.cls-1{fill:#24588d;}.cls-2{fill:#a95153;}.cls-3{fill:#af8f6e;}.cls-4{fill:#fff;}</style>
  </defs>
  <title
     id="title6">logo-pucv</title>
  <path
     style="fill:#ffffff;stroke-width:1"
     d="m 105.01845,71.571565 c -40.599996,0.5 -73.100584,34.000615 -73.700584,74.100605 h 51.000042 v -21.50046 c 10.099999,1 17.300547,-0.10012 22.700542,-1.60011 z m -37.900183,17.40053 h 28.900271 c 0.999997,0 1.299727,0.69934 1.299727,0.99934 0,0.3 -0.20039,0.40003 -0.30039,0.40003 H 66.218567 a 0.4,0.4 0 0 1 -0.400027,-0.40003 c 0,-0.49999 0.399727,-0.99934 1.299727,-0.99934 z m 0.999339,2.29907 c 4.000004,0 6.701347,1.10045 13.501351,1.10045 6.799996,0 8.798772,-1.10045 13.398771,-1.10045 4.599997,0 6.900132,2.10118 6.900132,6.20118 0,4.099995 -3.600075,5.700045 -6.100071,5.700045 a 4.9,4.9 0 0 1 -5.099275,-4.700705 4.8,4.8 0 0 1 0.700422,-2.19942 16.4,16.4 0 0 1 -5.401126,0.8997 3.3,3.3 0 0 1 -2.800202,-1.20009 c 6.199994,-0.1 8.701196,-1.60012 11.501196,-1.60012 a 3.2,3.2 0 0 1 3.399511,3.10059 2.6,2.6 0 0 1 -2.59945,2.800205 1.8,1.8 0 0 1 -2.000149,-1.701225 0.7,0.7 0 0 1 0.800061,-0.80005 c 0,0.49999 0.399336,0.80005 0.999339,0.80005 a 1.1,1.1 0 0 0 1.200088,-1.09898 1.6,1.6 0 0 0 -1.7994,-1.50047 2.3,2.3 0 0 0 -2.499815,2.49981 c 0,1.899995 1.299547,3.200225 3.799549,3.200225 a 4,4 0 0 0 4.099922,-4.199565 c 0,-3.6 -2.800725,-4.80035 -5.100732,-4.80035 -3.799998,0 -6.098771,0.99934 -13.398771,0.99934 -7.3,0 -9.701353,-0.99934 -13.501351,-0.99934 -2.299996,0 -5.099268,1.20035 -5.099268,4.80035 a 4,4 0 0 0 4.099929,4.199565 c 2.500002,0 3.799541,-1.30023 3.799541,-3.200225 a 2.3,2.3 0 0 0 -2.499815,-2.49981 1.6,1.6 0 0 0 -1.799392,1.50047 1.1,1.1 0 0 0 1.20008,1.09898 c 0.600003,0 0.999347,-0.30006 0.999347,-0.80005 a 0.7,0.7 0 0 1 0.800053,0.80005 1.8,1.8 0 0 1 -2.000141,1.701225 2.7,2.7 0 0 1 -2.599461,-2.800205 3.2,3.2 0 0 1 3.399514,-3.10059 c 2.8,0 5.299739,1.50012 11.49974,1.60012 a 3.3,3.3 0 0 1 -2.798739,1.20009 16.4,16.4 0 0 1 -5.401125,-0.8997 3.8,3.8 0 0 1 0.700414,2.19942 4.9,4.9 0 0 1 -5.099268,4.700705 c -2.500001,0 -6.100077,-1.60005 -6.100077,-5.700045 0,-3.6 2.898671,-6.20118 6.898668,-6.20118 z m 13.501351,5.20037 c 1.8,0 2.199899,2.09979 3.699902,2.09979 3.299995,0 2.600016,1.800865 5.300016,1.800865 0.1,0.5 -0.301168,1.20008 -0.901163,1.20008 -0.600002,0 -1.098655,-0.70005 -1.598651,-0.80005 0.999999,1.39999 1.498734,2.59945 2.798739,2.59945 a 1.1,1.1 0 0 0 1.000802,-0.70041 c 0.800001,1 0.199946,1.80086 -0.800061,1.80086 -0.999999,0 -2.700255,-1.7002 -3.600255,-2.80021 -0.900001,-1.1 -0.600566,-1.900495 -2.700563,-1.900495 -2.100005,0 -1.79877,-2.09979 -3.198766,-2.09979 -1.400003,0 -1.801343,2.09979 -3.301346,2.09979 -1.499995,0 -1.199449,-0.39949 -2.599453,1.900495 -1.399996,2.3 -2.600263,2.80021 -3.600263,2.80021 -0.999999,0 -1.699693,-0.80086 -0.8997,-1.80086 a 1.1,1.1 0 0 0 1.00081,0.70041 c 1.299997,0 3.298735,-2.69946 2.798739,-2.59945 -0.500004,0.1 -0.700122,0.80005 -1.600115,0.80005 -0.9,0 -0.999699,-0.70008 -0.899699,-1.20008 2.7,0 2.000013,-1.800865 5.300016,-1.800865 1.500002,0 2.001011,-2.09979 3.801011,-2.09979 z m -3.600263,5.700045 a 3.1,3.1 0 0 1 2.400175,1.20009 c 0,0.6 -0.100389,1.0008 -0.300387,1.0008 -0.200006,0 -0.500064,-0.50042 -0.800061,-0.70041 a 0.89999998,0.89999998 0 0 1 -1.00081,0.80006 c -0.699994,0 -0.499335,-0.9997 -0.999339,-0.8997 -0.499995,0.1 -0.699334,0.59931 -0.999339,0.59931 a 0.6,0.6 0 0 1 -0.501136,-0.59931 c 0,-1 0.800894,-1.40084 2.200897,-1.40084 z m 7.199055,0 c 1.299997,0 2.101251,0.40084 2.101251,1.40084 a 0.6,0.6 0 0 1 -0.501136,0.59931 c -0.299998,0 -0.999339,-1.19931 -0.999339,-0.59931 0,0.59999 -0.300801,0.8997 -1.000802,0.8997 a 0.89999998,0.89999998 0 0 1 -0.999339,-0.80006 c -0.300005,0.19999 -0.700062,0.70041 -0.800061,0.70041 -0.1,0 -0.300388,-0.4008 -0.300388,-1.0008 a 3.2,3.2 0 0 1 2.499814,-1.20009 z m -15.458998,1.48729 a 1.6,1.6 0 0 1 0.159718,0.0132 1.7,1.7 0 0 0 -0.499666,1.20008 c 0,0.9 0.899422,1.60012 2.199427,1.60012 a 3.7,3.7 0 0 0 1.799399,-0.49967 c -0.200005,-0.8 0.500446,-1.30011 1.100442,-1.60012 a 3.3,3.3 0 0 0 0.200748,2.09979 c 0.500003,1.5 2.599453,1.50014 2.599453,2.00015 0,0.49999 -0.500055,0.59931 -0.800053,0.59931 a 2,2 0 0 1 -1.699761,-0.99935 c 0.700002,2.80001 3.100492,7.39981 6.800499,7.39981 3.699999,0 5.999388,-4.5998 6.699382,-7.39981 a 2,2 0 0 1 -1.699753,0.99935 c -0.300005,0 -0.800061,-0.39932 -0.800061,-0.59931 0,-0.2 2.099457,-0.50015 2.59946,-2.00015 a 3.3,3.3 0 0 0 0.200742,-2.09979 c 0.700001,0.30001 1.298983,0.80012 1.098985,1.60012 a 4.1,4.1 0 0 0 1.800863,0.49967 c 1.399996,0 2.199427,-0.70012 2.199427,-1.60012 a 1.7,1.7 0 0 0 -0.499674,-1.20008 1.6,1.6 0 0 1 1.7994,1.69975 2.6,2.6 0 0 1 -1.499012,2.09979 c 0.200006,0.1 0.298925,0.50044 0.298925,1.10045 a 2.3,2.3 0 0 1 -2.299066,2.19942 1.5,1.5 0 0 1 0.499666,1.29973 2,2 0 0 1 -2.09978,1.80086 1.4,1.4 0 0 1 -1.500476,-1.50047 2.4,2.4 0 0 0 1.200081,0.30038 c 0.600002,0 1.299734,-0.3008 1.299734,-1.0008 a 1.6,1.6 0 0 0 -0.298925,-0.8997 c -0.700002,-0.2 -1.000809,-0.40008 -1.000809,-1.20009 a 3.9,3.9 0 0 0 1.500475,0.20075 1.5,1.5 0 0 0 1.600122,-1.29972 1.9,1.9 0 0 0 -0.300388,-0.90117 3,3 0 0 1 -2.800209,-0.29892 c -0.699995,3.8 -3.499109,9.29959 -7.999109,9.49959 -4.5,0.2 -7.400224,-5.69959 -8.100226,-9.49959 a 3,3 0 0 1 -2.800201,0.29892 1.9,1.9 0 0 0 -0.300388,0.90117 c 0,0.8 0.799753,1.29972 1.699753,1.29972 a 3.6,3.6 0 0 0 1.400836,-0.20075 c 0,0.80001 -0.300807,1.00009 -1.000801,1.20009 a 1.6,1.6 0 0 0 -0.298925,0.8997 c 0,0.7 0.699724,1.0008 1.299726,1.0008 a 2.4,2.4 0 0 0 1.200088,-0.30038 1.4,1.4 0 0 1 -1.500475,1.50047 2,2 0 0 1 -2.099788,-1.80086 1.5,1.5 0 0 1 0.499674,-1.29973 2.3,2.3 0 0 1 -2.300537,-2.19942 c 0,-0.60001 0.10039,-1.00045 0.300388,-1.10045 a 2.6,2.6 0 0 1 -1.500475,-2.09979 1.6,1.6 0 0 1 1.641145,-1.71294 z m 10.158982,4.61279 c 1.299997,0 1.401219,0.49967 1.701224,0.49967 0.299998,0 0.298647,-0.49967 1.598651,-0.49967 a 1.9,1.9 0 0 1 0.300388,1.0008 c -1.000007,0 -0.999039,0.29892 -1.899039,0.29892 -0.9,0 -1.000149,-0.29892 -2.000148,-0.29892 a 3.8,3.8 0 0 1 0.298924,-1.0008 z m 3.206096,2.49395 a 1.6,1.6 0 0 1 0.893833,0.30625 l -0.199278,0.80006 c -0.1,-0.2 -0.300058,-0.20075 -0.800061,-0.20075 -0.500004,0 -0.599373,0.20075 -1.399366,0.20075 a 13.9,13.9 0 0 1 -1.500475,-0.20075 c -0.300005,0 -0.700062,7.5e-4 -0.800061,0.20075 l -0.200749,-0.80006 a 1.8,1.8 0 0 1 1.100449,-0.30039 h 2.700563 a 1.6,1.6 0 0 1 0.205145,-0.006 z m -2.542316,1.7994 c 0.0123,-0.007 0.02414,-0.005 0.03664,0.007 0.1,0.1 0.300807,0.29893 1.000809,0.29893 a 1.1,1.1 0 0 0 0.899692,-0.29893 c 0.200006,0.1 0.199286,0.49932 0.199286,0.59932 a 1.3,1.3 0 0 1 -1.098978,0.70041 1.3,1.3 0 0 1 -1.200088,-0.70041 c 0,-0.0875 0.07652,-0.55742 0.162644,-0.60664 z m -33.463231,4.70657 c 4.999996,0 8.800543,0.30017 12.500542,2.40017 3.399994,-2.1 7.699074,-2.40017 12.499071,-2.40017 v 2.09978 a 13.2,13.2 0 0 1 3.699902,-0.49966 v 21.6001 c -8.1,0 -11.999968,1.10056 -14.699968,2.70056 h -2.99948 c -2.8,-1.6 -6.699615,-2.70056 -14.799615,-2.70056 v -21.6001 a 13.5,13.5 0 0 1 3.799548,0.49966 z m 1.600115,1.29973 v 17.0005 a 24.3,24.3 0 0 1 10.100366,2.00015 v -16.60048 c -2.199997,-1.9 -6.500366,-2.40018 -10.100366,-2.40017 z m 21.799384,0 c -3.6,-2e-5 -7.998898,0.50017 -10.098904,2.40017 v 16.60048 a 24.3,24.3 0 0 1 10.098904,-2.00015 z m -25.598925,1.9005 v 18.09948 c 6.699997,0 10.79952,1.10096 13.599519,3.00095 h 2.199427 c 2.799999,-1.89999 6.899883,-3.00095 13.499881,-3.00095 v -18.09948 a 7.6000001,7.6000001 0 0 0 -2.099788,0.49967 v 15.9997 c -4.799997,0 -8.399375,0.60017 -11.599371,2.40017 h -1.900509 c -3.099997,-1.8 -6.499737,-2.40017 -11.499733,-2.40017 v -15.9997 a 8.1999997,8.1999997 0 0 0 -2.199426,-0.49967 z"
     id="path90"
     inkscape:connector-curvature="0" />
  <path
     style="fill:#ffffff;stroke-width:1"
     d="m 107.41863,71.571565 v 50.900385 c 4.8,1.6 12.49908,2.69976 22.69908,1.69976 v 21.50046 h 51.30043 c -0.5,-39.6 -33.99951,-73.600605 -73.99951,-74.100605 z m 9.39994,11.30045 h 1.69976 a 4.2,4.2 0 0 1 0.8997,2.40018 c 0,1.4 -1.29972,2.40032 -1.29972,4.40032 0,2 1.39936,3.59891 1.39936,5.19891 0,1.6 -1.89904,3.19996 -1.89904,4.49996 v 0.40003 a 16,16 0 0 1 4.99963,-6.19972 c -0.39999,-1.29999 -1.29972,-1.69954 -1.29972,-3.79954 0,-2.1 1.29972,-3.09996 1.29972,-4.49996 a 6.2,6.2 0 0 0 -0.80005,-2.40018 h 1.79939 a 4.9,4.9 0 0 1 0.80006,2.40018 c 0,1.4 -1.29972,2.60032 -1.29972,4.40032 a 7.9999998,7.9999998 0 0 0 0.8997,2.99948 12.2,12.2 0 0 1 2.8002,-1.40083 4,4 0 0 1 -0.29893,-1.49901 c 0,-2.1 1.29973,-3.09996 1.29973,-4.49996 a 6.2,6.2 0 0 0 -0.80005,-2.40018 h 1.69975 a 4.1,4.1 0 0 1 0.80006,2.40018 c 0,1.4 -1.29973,2.70032 -1.29973,4.40032 a 3.6,3.6 0 0 0 0.19928,0.99934 26.4,26.4 0 0 1 7.90094,-1.10045 c 12.6,0 21.39936,7.80113 21.39936,15.601125 a 9.3000003,9.3000003 0 0 1 -7.70019,9.59923 h 12.90057 v 1.9005 h -49.70031 v -2.09978 c 0,-3 4.30068,-3.20104 4.30068,-4.20103 0,-1 -5.9008,-2.8994 -5.9008,-6.69939 h 17.9002 c 0,3.79999 -5.79969,5.69939 -5.79969,6.69939 0,0.99999 4.40032,1.00031 4.40032,4.40031 h 17.69945 c -4.69999,-1 -6.90013,-4.00019 -6.90013,-7.70019 a 7.5,7.5 0 0 1 3.39952,-6.10007 c -1.10001,-1.399995 -3.69882,-3.699905 -8.89882,-3.699905 a 14.1,14.1 0 0 0 -5.0011,0.80007 2.5,2.5 0 0 0 -0.59931,1.60011 2.9,2.9 0 0 0 1.09899,2.000135 h -1.89904 a 2.7,2.7 0 0 1 -0.8997,-2.000135 c 0,-0.2 0.0996,-0.29967 0.0996,-0.49967 a 9.2000004,9.2000004 0 0 0 -2.30053,2.499805 h -2.00015 c 1,-2.399985 5.2012,-6.199715 11.5012,-6.199715 6.3,0 10.19974,3.29972 11.49973,6.199715 a 5.5,5.5 0 0 0 -3.6999,5.30002 c 0,2.8 3.00013,6.00043 6.90014,6.00043 3.9,0 7.49944,-1.70094 7.49944,-7.90094 0,-6.199985 -8.40067,-13.800255 -19.40067,-13.800255 -11.00001,0 -15.99945,5.60075 -17.69946,10.400745 h -1.69976 a 2.6,2.6 0 0 1 -0.80005,-2.000135 c 0,-1.9 1.9005,-3.20035 1.9005,-4.80035 0,-1.6 -1.60011,-2.99927 -1.60011,-5.09927 0,-2.1 1.29972,-3.09996 1.29972,-4.49996 a 6.2,6.2 0 0 0 -0.80006,-2.40018 z m -2.89984,22.199405 c 0,2.4 5.09927,3.40003 5.09927,5.30003 0,1.89999 -3.89918,1.50031 -3.89918,4.40031 h 10.89896 c 0,-2.9 -3.89918,-2.40032 -3.89918,-4.40031 0,-2 5.20037,-2.90003 5.20037,-5.30003 z m 37.92364,16.18579 a 3.5,3.5 0 0 1 1.97523,0.61397 5.2,5.2 0 0 0 -1.29973,3.10059 c 0,2.20001 3.40098,3.70014 3.40098,6.90013 a 5.4,5.4 0 0 1 -5.50076,5.70006 3.8,3.8 0 0 1 -2.59946,-0.80007 3.5,3.5 0 0 0 1.79939,-2.8002 c 0,-2.2 -3.60025,-3.39941 -3.60025,-7.09941 a 5.5,5.5 0 0 1 5.50076,-5.60041 3.5,3.5 0 0 1 0.32384,-0.0147 z m 11.66092,0.004 a 3.4,3.4 0 0 1 1.91515,0.60957 5.2,5.2 0 0 0 -1.29973,3.10059 c 0,2.20002 3.39952,3.70014 3.39952,6.90013 a 5.4,5.4 0 0 1 -5.4993,5.70006 3.4,3.4 0 0 1 -2.50128,-0.80007 3.4,3.4 0 0 0 1.70122,-2.8002 c 0,-2.2 -3.50062,-3.39941 -3.50062,-7.09941 a 5.4,5.4 0 0 1 5.50076,-5.60041 3.4,3.4 0 0 1 0.28428,-0.0103 z m -23.5856,0.0103 a 4,4 0 0 1 2.30053,0.59931 4.7,4.7 0 0 0 -1.29973,3.10059 c 0,2.2 3.39952,3.70014 3.39952,6.90013 a 5.4,5.4 0 0 1 -5.4993,5.70006 3.7,3.7 0 0 1 -2.60092,-0.80007 3.4,3.4 0 0 0 1.70122,-2.8002 c 0,-2.2 -3.50062,-3.39941 -3.50062,-7.09941 a 5.4,5.4 0 0 1 5.4993,-5.60041 z m 0,1.39937 c -2.1,0 -3.6999,1.19993 -3.6999,4.09993 0,2.9 3.50062,4.20013 3.50062,6.90013 a 4.6,4.6 0 0 1 -0.8997,2.40018 3.8,3.8 0 0 0 3.79955,-4.00029 c 0,-2.6 -3.50063,-4.09975 -3.50063,-6.59975 a 5.1,5.1 0 0 1 0.80006,-2.8002 z m 11.60084,0 c -2.1,0 -3.6999,1.19993 -3.6999,4.09993 0,2.9 3.60026,4.20013 3.60026,6.90013 a 4,4 0 0 1 -1.0008,2.40018 3.9,3.9 0 0 0 3.90065,-4.00029 c 0,-2.6 -3.60027,-4.09975 -3.60027,-6.59975 a 5.1,5.1 0 0 1 0.80006,-2.8002 z m 11.70048,0 c -2.09999,0 -3.70136,1.19993 -3.70136,4.09993 0,2.9 3.50062,4.20013 3.50062,6.90013 a 4,4 0 0 1 -0.99934,2.40018 3.9,3.9 0 0 0 3.89918,-4.00029 c 0,-2.6 -3.49916,-4.09975 -3.49916,-6.59975 a 5.1,5.1 0 0 1 0.80006,-2.8002 z"
     id="path92"
     inkscape:connector-curvature="0" />
  <path
     style="fill:#ffffff;stroke-width:1"
     d="m 31.317866,148.07235 c 0.6,40.1 33.100588,73.70027 73.700584,74.20026 v -38.80136 c -12.599995,-3.19999 -22.199795,-16.0989 -22.499801,-35.3989 z m 29.101011,1.49901 h 1.299727 l 0.199286,5.80115 a 5.7,5.7 0 0 1 2.400175,4.69924 3.9,3.9 0 0 1 -0.400027,2.09979 4.9,4.9 0 0 1 2.899841,-1.09898 1.8,1.8 0 0 1 1.699754,0.79859 l 4.80035,-4.99962 1.000809,0.8997 -5.100738,5.40111 a 5.5,5.5 0 0 1 -2.400175,3.99883 2.1,2.1 0 0 1 1.500475,0.50114 l 4.999629,-4.89999 1.000809,0.80006 -5.300023,5.1989 a 4.7,4.7 0 0 1 -2.300529,4.20104 2.2,2.2 0 0 1 1.600114,0.49968 l 4.999629,-4.80035 1.000809,0.80006 -5.100738,5.30001 a 6.1,6.1 0 0 1 -5.70005,5.79969 2.1,2.1 0 0 1 -1.499005,-0.49967 v 3.50502 c 0.03462,-3.1e-4 0.06467,-0.004 0.09964,-0.004 5.899996,0 6.39979,5.79969 12.299793,5.79969 5.899997,0 5.899794,-5.70005 12.299794,-5.70005 6.399999,0 6.399797,5.70005 12.299789,5.70005 v 1.9005 c -6.399996,0.2 -6.899789,-5.70004 -12.299789,-5.70004 -5.400001,0 -5.899794,5.70004 -12.299794,5.70004 -6.399999,0 -7.999438,-5.70004 -12.399432,-5.70004 -4.400001,0 -5.699953,3.99963 -9.399952,4.99963 l -1.200088,-1.29973 c 3.296905,-1.12789 4.489602,-4.58642 8.599892,-5.48318 v -3.71749 a 2.5,2.5 0 0 1 -1.600115,0.49967 c -2.7,0 -5.70005,-2.89897 -5.70005,-5.99897 l -5.100738,-5.10073 1.00081,-0.80006 4.798879,4.5996 a 2.8,2.8 0 0 1 1.301198,-0.40003 5.5,5.5 0 0 1 -2.099788,-4.09994 l -5.001099,-5.1989 1.00081,-0.80006 4.599601,4.69924 a 2.3,2.3 0 0 1 1.399366,-0.40003 5.6,5.6 0 0 1 -1.899039,-4.09993 l -4.999628,-5.20037 0.999339,-0.8997 4.899989,4.80034 a 1.8,1.8 0 0 1 1.500475,-0.59931 5.6,5.6 0 0 1 2.899841,0.99934 7.7,7.7 0 0 1 -0.300387,-2.00015 5.8,5.8 0 0 1 2.499814,-4.69924 z m 0.599313,7.00124 c -0.600003,0 -2.000141,1.49955 -2.000141,3.79954 0,2.30001 1.100141,3.89919 2.000141,3.89919 0.9,0 2.000148,-1.99919 2.000148,-3.89919 0,-1.9 -1.300147,-3.79954 -2.000148,-3.79954 z m 5.590148,5.89347 a 0.89999998,0.89999998 0 0 0 -0.08938,0.006 c -2.199996,0 -4.300677,3.49993 -4.300677,4.09993 0,0.6 0.299338,0.8997 0.999339,0.8997 a 4.5,4.5 0 0 0 4.300677,-4.00029 0.89999998,0.89999998 0 0 0 -0.909955,-1.0052 z m -11.190552,0.006 c -0.800001,0 -1.200088,0.39934 -1.200088,0.99934 a 4.7,4.7 0 0 0 4.300677,4.00029 c 0.900001,0 1.399366,0.6003 1.399366,-0.8997 0,-1.5 -2.399957,-4.09993 -4.499955,-4.09993 z m 5.600404,4.5996 c -0.1,1.4 -1.000142,1.60012 -2.000141,1.60012 a 4,4 0 0 1 2.000141,2.70056 4.3,4.3 0 0 1 2.000148,-2.70056 c -0.999999,0 -1.80015,-0.20012 -2.000148,-1.60012 z m -6.687663,1.08726 c -0.137504,-0.0375 -0.212468,0.16363 -0.212468,1.11363 0,1.9 2.0996,3.99883 4.599595,3.99883 0.700031,0 1.200087,0.6003 1.200087,-0.8997 0,-1.5 -2.199629,-3.89918 -4.999628,-3.89918 -0.250002,0 -0.45009,-0.27608 -0.587586,-0.31358 z m 11.88804,0.51286 a 4.2,4.2 0 0 0 -4.00029,3.6999 c 0,0.5 0.199338,0.8997 0.999339,0.8997 a 3.9,3.9 0 0 0 4.101399,-3.79954 c 0,-0.70001 -0.300447,-0.80006 -1.100448,-0.80006 z m -5.200377,4.49996 c -0.1,1.1 -0.799401,1.40083 -1.7994,1.40083 a 4.5,4.5 0 0 1 1.7994,2.79874 4.6,4.6 0 0 1 1.900502,-2.79874 c -1,0 -1.700504,-0.30083 -1.900502,-1.40083 z m -5.79969,1.10045 c -0.499996,0 -1.000802,0.20006 -1.000802,0.80005 a 4.5,4.5 0 0 0 4.300677,4.19958 c 0.900001,0 1.399366,0.69955 1.399366,-1.10045 0,-1.8 -2.199239,-3.89918 -4.699241,-3.89918 z m 11.000067,0 a 4.4,4.4 0 0 0 -4.00029,3.89918 c 0,0.6 0.300088,1.10045 1.200088,1.10045 a 4.5,4.5 0 0 0 4.300677,-4.19958 c 0,-0.59999 -0.700474,-0.80005 -1.500475,-0.80005 z m -4.099929,16.70011 c 5.899996,0 6.39979,5.7997 12.299793,5.7997 5.899997,0 6.099792,-5.70006 12.299794,-5.70006 6.399999,0 6.399797,5.70006 12.29979,5.70006 v 1.7994 c -6.399997,0.29999 -6.89979,-5.59895 -12.29979,-5.59895 -5.400001,0 -5.899794,5.59895 -12.299794,5.59895 -6.399999,0 -7.299436,-5.59895 -12.399432,-5.59895 -2.400002,0 -3.800381,1.20017 -5.200377,2.40018 l -1.299734,-1.40084 c 1.600002,-1.5 3.399747,-2.99949 6.59975,-2.99949 z m 0,7.5991 c 5.899996,0 6.39979,5.80115 12.299793,5.80115 5.899997,0 6.099792,-5.70005 12.299794,-5.70005 6.399999,0 6.399797,5.70005 12.29979,5.70005 v 1.89904 c -6.399997,0.2 -6.89979,-5.70005 -12.29979,-5.70005 -5.400001,0 -5.899794,5.70005 -12.299794,5.70005 -6.399999,0 -7.199407,-5.50005 -11.999405,-5.70005 l -2.101251,-1.7994 z m 24.699226,7.80129 c 6.399999,0 6.399797,5.59895 12.299791,5.59895 v 1.9005 c -6.299999,0.3 -6.799792,-5.6004 -12.299791,-5.6004 -2.999998,0 -4.399716,1.69986 -6.199716,3.29986 a 10.1,10.1 0 0 1 -1.7994,-0.8997 c 2.300003,-1.7 3.699121,-4.29921 7.999116,-4.29921 z"
     id="path94"
     inkscape:connector-curvature="0" />
  <path
     style="fill:#ffffff;stroke-width:1"
     d="m 130.01807,148.07235 c -0.3,19.3 -10.09944,32.19891 -22.59944,35.3989 v 38.80136 c 40,-0.49999 73.49951,-34.10026 73.99951,-74.20026 z m 31.89976,2.29906 h 10.00072 v 10.90043 l -3.60026,-3.90065 -16.20044,11.80013 v -7.19906 l -12.79947,8.10022 v -5.80115 l -10.40075,6.10008 v -2.29908 l 12.00086,-6.99977 v 5.70005 l 12.89911,-8.10022 v 7.19905 l 14.50069,-10.60004 2.00014,2.09979 v -5.39965 h -4.99963 l 1.39937,1.80086 -10.79932,7.49944 v -6.90014 l -11.70048,6.90014 v -6.5001 l -11.99941,6.5001 v -2.40017 l 13.59952,-7.30017 v 6.50011 l 11.70048,-6.90013 v 6.90013 l 6.69939,-4.80035 z m -1.89904,13.20097 h 10.2 v 11.19934 l -3.60026,-3.89918 -21.69975,17.19979 v -8.70101 l -12.20015,7.79984 v -5.09927 l -9.70033,6.19971 v -2.29906 l 11.30045,-7.10088 v 5.10073 l 12.20016,-7.79983 v 8.2995 l 20.09962,-15.59967 1.9005,2.00015 v -5.70005 h -5.00109 l 1.50047,1.7994 -16.20044,11.89977 v -8.10023 l -12.69983,8.10023 v -5.79969 l -10.90042,6.59974 v -2.30053 l 12.50055,-7.59909 v 5.89933 l 12.69982,-8.10022 v 8.10022 l 12.00086,-8.99992 z m -22.09978,24.39884 0.29892,0.20074 a 4.1,4.1 0 0 1 1.9005,3.69992 l 1.29974,0.30038 a 4.9,4.9 0 0 1 2.8002,-2.70057 h 0.49967 l 2.60092,2.30055 v 0.40002 a 5,5 0 0 1 -2.30053,3.20024 l 0.49967,1.29973 c 1,0 2.89954,-6.3e-4 3.79954,1.39936 v 0.49968 l -0.59931,3.20022 h -0.49967 a 4.6,4.6 0 0 1 -4.00029,-0.40002 l -0.8997,1.0008 a 4,4 0 0 1 0.8997,4.09994 l -0.20075,0.30038 -3.09913,1.09898 -0.30038,-0.19928 a 4.3,4.3 0 0 1 -1.7994,-3.80101 l -1.29973,-0.29892 a 5.1,5.1 0 0 1 -3.00095,2.6991 l -0.40003,0.20075 -2.40017,-2.30054 v -0.30039 a 2.2,2.2 0 0 1 0.1011,-0.80006 7,7 0 0 1 -2.20089,0.70042 v 1.40084 c 1,0.3 2.60095,0.79942 3.00095,2.19943 v 0.30038 l -1.40084,2.8002 h -0.30038 a 3.9,3.9 0 0 1 -3.69991,-1.10044 l -0.99933,0.8997 a 4.4,4.4 0 0 1 0.70042,3.6999 l -3.20024,1.00081 -0.30039,-0.20075 a 3.9,3.9 0 0 1 -1.60011,-3.29988 h -1.39937 a 3.9,3.9 0 0 1 -2.30053,2.99949 h -0.30039 l -2.80021,-1.39937 v -0.30039 a 4.1,4.1 0 0 1 1.20009,-3.60026 l -0.8997,-0.99934 c -0.9,0.5 -2.4999,1.19931 -3.6999,0.59931 l -0.30039,-0.19928 -0.99934,-2.99948 0.19929,-0.30039 c 0.59999,-1.30001 2.29986,-1.60012 3.29986,-1.60012 l 0.20075,-1.40083 a 4,4 0 0 1 -3.10059,-2.19943 v -0.30039 l 1.40084,-2.79874 h 0.30039 a 3.7,3.7 0 0 1 3.59879,1.09898 l 1.10045,-0.8997 a 3.9,3.9 0 0 1 -0.70042,-3.6999 l 0.20074,-0.30039 3.09913,-0.99934 0.30039,0.19929 a 3.7,3.7 0 0 1 1.60012,3.29987 h 1.40083 a 3.8,3.8 0 0 1 2.29907,-2.99948 h 0.30039 l 2.8002,1.39936 v 0.30039 a 4.1,4.1 0 0 1 -1.20009,3.60026 l 0.8997,1.10045 a 4.6,4.6 0 0 1 2.49982,-0.80006 l -0.80006,-0.60077 -0.30039,-0.30039 0.70042,-3.49916 h 0.49967 a 4.7,4.7 0 0 1 3.90065,0.49967 l 0.80006,-0.99934 a 4.4,4.4 0 0 1 -0.70042,-4.09994 v -0.30038 z m -0.10111,1.50047 -1.60011,0.49967 c -0.3,1.3 1.0008,2.60058 1.0008,2.70058 l 0.49968,0.49966 -2.80021,3.20024 -0.59931,-0.59931 a 2.8,2.8 0 0 0 -2.49982,-0.70043 l -0.40003,1.60013 a 4.9,4.9 0 0 0 2.79874,0.49966 h 0.60078 l 1.20008,3.79955 -0.60077,0.30039 c -0.5,0.2 -1.79904,1.00014 -1.89904,2.00014 l 1.09898,1.10045 a 3.3,3.3 0 0 0 1.80086,-2.10125 l 0.19929,-0.79859 0.70041,0.19927 3.39952,0.70042 v 0.69895 c 0,0 -0.29958,1.90021 0.70042,2.80021 l 1.69975,-0.59931 a 3.3,3.3 0 0 0 -0.99934,-2.60093 l -0.60077,-0.59931 2.89984,-3.10059 0.60078,0.50114 a 2.7,2.7 0 0 0 2.59945,0.69895 l 0.30039,-1.69975 a 3.5,3.5 0 0 0 -2.70056,-0.49968 h -0.59931 l -1.39937,-3.6999 0.59931,-0.30039 a 5.4,5.4 0 0 0 2.00014,-2.00014 l -1.20008,-1.09899 a 2.9,2.9 0 0 0 -1.69976,1.99869 l -0.20075,0.80006 h -0.80006 l -3.29987,-0.80006 v -0.69896 c 1e-5,0 0.19994,-1.90057 -0.80006,-2.70057 z m -18.19912,4.40033 -1.80086,0.59931 a 4.1,4.1 0 0 0 1.0008,2.30054 l 0.49968,0.49967 -3.29988,3.00095 -0.49967,-0.60078 a 3.7,3.7 0 0 0 -2.20089,-1.29973 l -0.80006,1.50048 a 4.3,4.3 0 0 0 2.40017,1.09898 h 0.70042 l -0.40003,4.30068 h -0.70041 a 4,4 0 0 0 -2.49982,0.59931 l 0.60078,1.69975 a 4.6,4.6 0 0 0 2.29906,-0.99934 l 0.60078,-0.40002 2.89985,3.20023 -0.60078,0.49967 a 5.2,5.2 0 0 0 -1.39937,2.20089 l 1.60011,0.79859 c 1,-0.6 1.09899,-2.29907 1.09899,-2.29907 v -0.80005 l 4.30067,0.40003 v 0.80005 a 3.6,3.6 0 0 0 0.70042,2.40018 l 1.60012,-0.50114 a 3.4,3.4 0 0 0 -0.90117,-2.39871 l -0.49967,-0.60077 3.29988,-2.89985 0.50113,0.70042 c 0,0 1.09943,1.30009 2.19942,1.20009 l 0.80007,-1.60012 a 3.3,3.3 0 0 0 -2.30054,-0.8997 h -0.80005 l 0.40002,-4.30068 h 0.70042 l 0.0996,-0.0996 a 4.9,4.9 0 0 0 2.49982,-0.70041 l -0.49968,-1.50048 a 4.3,4.3 0 0 0 -2.40017,0.90117 l -0.59931,0.40002 -2.8002,-3.20023 0.49967,-0.50113 a 3.7,3.7 0 0 0 1.29972,-2.19943 l -1.499,-0.80006 a 4.1,4.1 0 0 0 -1.10045,2.30054 v 0.80005 l -4.40032,-0.40003 v -0.80006 a 3.7,3.7 0 0 0 -0.59931,-2.40017 z m 12.79946,5.09927 0.70042,2.20089 v -0.0996 l 0.99934,-0.80005 -0.40002,-1.3012 z"
     id="path96"
     inkscape:connector-curvature="0" />
  <path
     style="fill:#ffffff;stroke-width:1"
     d="m 106.21854,124.17171 c -4.6,1.50001 -10.400128,2.50087 -22.00013,1.80087 v 20.89968 c 0,18.7 9.200134,31.89959 22.00013,34.7996 12.7,-2.90001 21.90049,-16.0996 21.90049,-34.7996 v -20.89968 c -11.6,0.7 -17.40049,-0.30086 -21.90049,-1.80087 z m -3.50062,4.49997 h 7.20052 v 9.70033 h 10.69968 v 7.3998 h -10.69968 v 19.99999 a 13.1,13.1 0 0 1 -3.60026,1.60012 10.9,10.9 0 0 1 -3.60026,-1.60012 V 145.77181 H 91.918602 v -7.3998 h 10.799318 z m 1.60012,1.80086 v 9.49959 H 93.718002 v 4.09993 h 10.600038 v 20.40002 a 3.4,3.4 0 0 0 2.00014,0.89969 3.1,3.1 0 0 0 1.9005,-0.89969 v -20.40002 h 10.60004 v -4.09993 h -10.60004 v -9.49959 z m 17.94415,20.5949 c 0.11231,-0.009 0.23108,-0.008 0.35607,0.004 a 1.2,1.2 0 0 1 1.20009,0.80005 l 1.60012,-0.80005 -0.20075,1.29972 -1.29972,0.60078 v 1.09898 h 1.29972 v 1.00081 l -4.29921,-0.30039 v -2.09979 c 0.0875,-0.9625 0.55755,-1.54162 1.34368,-1.60451 z m 0.0557,1.20448 c -0.4,0 -0.69896,0.10042 -0.69896,0.70042 v 1.09898 l 1.29973,0.10111 v -1.10045 c 0,-0.6 -0.20077,-0.80006 -0.60077,-0.80006 z m -30.098891,0.49967 0.298925,3.40098 -0.8997,0.0996 -0.199278,-2.40017 -1.00081,0.0996 0.200749,2.00015 -0.800061,0.0996 -0.200748,-2.00014 -1.600115,0.10111 -0.09964,-1.00081 z m 30.050531,3.11085 a 2.1,2.1 0 0 1 0.54949,0.0894 2.2,2.2 0 0 1 1.59865,2.8002 2.1,2.1 0 0 1 -2.6991,1.7994 2.1,2.1 0 0 1 -1.60011,-2.8002 2.1,2.1 0 0 1 2.15107,-1.88879 z m -0.1817,1.01399 a 1.1,1.1 0 0 0 -1.06967,1.07554 c -0.2,0.8 -3e-4,1.40011 0.8997,1.60012 a 1.2,1.2 0 0 0 1.60011,-1.00081 1.2,1.2 0 0 0 -0.99934,-1.60012 1.1,1.1 0 0 0 -0.4308,-0.0747 z m -29.470267,0.20661 0.203682,0.95831 -4.205434,0.89384 -0.203682,-0.95831 z m 0.600775,2.2683 0.599313,1.60011 c 0.600002,1.60001 0.201018,2.6006 -1.098978,3.10059 -1.300005,0.50001 -2.299846,-1.1e-4 -2.899849,-1.60011 l -0.700414,-1.60011 z m -0.599312,1.20009 -2.20089,0.90116 0.300388,0.79859 c 0.300005,0.8 0.800121,1.10006 1.600114,0.80006 0.800001,-0.3 1.00042,-0.79976 0.700422,-1.69976 z m 27.251784,0.57293 c 0.14688,0.009 0.29692,0.0525 0.44692,0.12748 a 0.79999998,0.79999998 0 0 1 0.60078,0.80006 0.99999998,0.99999998 0 0 1 1.39937,-0.40003 c 0.8,0.4 0.90114,1.00015 0.50113,2.00015 l -1.0008,2.19942 -4.00029,-1.7994 0.89969,-2.00014 c 0.30001,-0.675 0.71258,-0.95567 1.1532,-0.92754 z m 0.0396,0.94952 c -0.19219,-0.009 -0.34235,0.17769 -0.49235,0.47769 l -0.40003,1.00081 0.80006,0.29892 0.49967,-0.99934 c 0.1,-0.3 0.10072,-0.50042 -0.19928,-0.70042 -0.075,-0.05 -0.14401,-0.0745 -0.20807,-0.0777 z m 1.69975,0.44252 c -0.19219,0.005 -0.34234,0.1352 -0.49234,0.4352 l -0.59931,1.29973 0.8997,0.30039 0.49967,-1.29973 c 0.2,-0.4 0.20036,-0.60042 -0.0996,-0.70042 -0.075,-0.025 -0.14402,-0.0367 -0.20808,-0.0352 z m -26.292014,1.73493 1.800859,2.89984 -0.80005,0.40003 -1.301197,-1.89904 -0.698951,0.40003 0.999339,1.7994 -0.599312,0.40003 -1.100441,-1.69976 -0.700422,0.40003 1.299726,2.09979 -0.698951,0.49967 -1.900502,-2.89985 z m 21.299714,1.60011 4.70071,0.90117 -0.60078,0.8997 -1.20009,-0.30039 -1.09897,1.69976 c 0.1,0.3 0.3993,0.6008 0.5993,1.0008 l -0.5993,0.80006 c -1.60001,-2.5 -2.40018,-4.09993 -2.40018,-4.09993 z m 0.40003,1.00081 0.90116,1.39937 0.79859,-1.10045 z m -19.369905,1.21035 c 0.39649,-0.005 0.60828,0.46372 1.17078,1.08872 0.9,1 0.80003,1.70125 0.40003,2.10125 l -0.50114,0.19928 -0.59931,-0.80006 h 0.30039 c 0.20001,-0.19999 0.29925,-0.49934 -0.20074,-0.99934 -0.5,-0.5 -0.69934,-0.50039 -0.99935,-0.30038 -0.3,0.2 1.69967,2.19987 0.49968,3.29986 -1.200001,1.10001 -1.29943,0.40034 -2.19943,-0.49966 -0.900001,-0.9 -0.900391,-1.80053 -0.300388,-2.30054 a 2.1,2.1 0 0 1 0.700414,0.49968 c -0.299997,0.39999 -0.300718,0.70119 0.199286,1.30119 0.499996,0.6 0.700804,0.49892 1.000798,0.29892 0.30001,-0.2 -1.801129,-2.19988 -0.501132,-3.29987 0.487502,-0.4125 0.792222,-0.58613 1.030112,-0.58905 z m 15.470715,1.88877 2.40018,2.49982 1.60012,-1.59865 0.5993,0.69895 -2.30052,2.20089 -2.99949,-3.10059 z m -10.69968,1.60012 h 3.39952 v 0.8997 h -2.40017 v 0.90117 h 2.00014 v 0.80005 h -2.00014 v 0.80006 h 2.49981 v 0.8997 h -3.49916 z m 4.09994,0 h 3.89918 v 1.00081 h -1.50048 v 3.29987 h -0.89969 v -3.29987 h -1.49901 z"
     id="path98"
     inkscape:connector-curvature="0" />
  <path
     class="cls-1"
     d="m 120.01833,43.471884 -0.5,2 c 50.1,6.699999 88.8,50.100001 88.8,101.399996 0,56.20001 -45.8,102.20001 -102,102.20001 -56.199996,0 -101.9999969,-46 -101.9999969,-102.20001 A 102.5,102.5 0 0 1 93.018334,45.471884 l -0.5,-2 c -50.9,6.399999 -90.5000009,50.800001 -90.5000009,103.399996 0,57.80001 46.8000009,104.80001 104.2999969,104.80001 57.5,0 104.3,-47 104.3,-104.80001 0,-52.599995 -39.7,-96.999997 -90.6,-103.399996"
     id="path100"
     style="fill:#ffffff"
     inkscape:connector-curvature="0" />
  <polygon
     class="cls-1"
     points="141.4,77.8 143.8,77.8 143.8,70.1 148.1,70.1 148.1,67.7 143.8,67.7 143.8,63.8 141.4,63.8 141.4,67.7 137,67.7 137,70.1 141.4,70.1 "
     id="polygon102"
     style="fill:#ffffff"
     transform="translate(-36.381666,-35.028108)" />
  <path
     class="cls-1"
     d="m 140.71833,42.471884 -19.6,-2.2 -0.3,1.6 17.9,2.7 2,-2.1 m -19.6,-3.999999 20.9,1.599999 a 21.2,21.2 0 0 1 1.8,-2.199999 l -1.8,-1.3 -20.9,0.3 z m -0.3,-4.3 0.3,1.3 18.8,-1.9 c 0,0 -1.5,-2.1 -2,-2.6 z m -0.7,-3 0.5,1.6 15.5,-4.499999 -1.3,-2.7 z m -1.6,-2.599999 0.8,1.3 14.2,-7.8 a 15.7,15.7 0 0 1 -0.5,-3.2 z m -2,-2.5 1.2,1.4 14.5,-12.100001 v -3.2 h -2.8 z m -2.6,-1.8 1.3,0.8 9.8,-13.400001 -3.6,-0.3 z m -2.3,-1.6 1.2,0.8 5.5,-12.600001 -2.9,-1.1000003 z m -3.1,-0.6 1.5,0.3 3.1,-13.9000013 -1.8,-1.400001 z m -36.399996,20.399998 2,2.1 17.8,-2.7 -0.2,-1.6 z m 19.6,-3.999999 v -1.6 l -20.9,-0.3 -1.8,1.3 a 21.2,21.2 0 0 1 1.8,2.199999 z m 0.2,-4.3 -17,-3.2 c -0.5,0.5 -2.1,2.6 -2.1,2.6 l 18.9,1.9 z m 0.8,-3 -14.7,-5.599999 -1.3,2.7 15.5,4.499999 z m 1.6,-2.599999 -14.5,-9.7 a 15.7,15.7 0 0 1 -0.5,3.2 l 14.2,7.8 z m 2,-2.5 -12.9,-13.900001 h -2.8 v 3.2 l 14.4,12.100001 z m 2.600001,-1.8 -7.500001,-12.900001 -3.6,0.3 9.800001,13.400001 z m 2.299995,-1.6 -3.799995,-12.9000013 -2.900001,1.1000003 5.400001,12.600001 z m 3.1,-0.6 -2.8,-15.0000023 a 15,15 0 0 0 -1.799995,1.400001 l 3.099995,13.9000013 z m 2.9,-0.2 1.3,-16.6000023 a 5.4,5.4 0 0 1 -2.1,-1.400001 5.4,5.4 0 0 1 -2.1,1.400001 l 1.3,16.6000023 z"
     id="path104"
     style="fill:#ffffff"
     inkscape:connector-curvature="0" />
  <path
     class="cls-1"
     d="m 40.718334,215.87189 a 16.9,16.9 0 0 1 -2.4,-1.9 l -1.7,-1.8 -1.6,-1.5 0.2,-0.3 a 1.5,1.5 0 0 0 1,0.4 c 0.5,0 0.8,-0.4 2,-1.5 l 4.5,-4.6 c 0.9,-0.9 1.1,-1.2 1.2,-1.6 a 1.3,1.3 0 0 0 -0.4,-1 l 0.3,-0.2 1.4,1.5 2.3,2.2 c 1.2,1.1 4.7,4.9 0.7,9 -4,4.1 -5.9,2.2 -7.5,1.3 m 6.1,-9.8 -1,-0.9 -6.7,6.9 c -0.4,0.4 -0.6,0.6 -0.4,1 l 0.6,0.6 c 2,2.1 4,1.8 6.7,-0.9 2.7,-2.7 2,-5.5 0.8,-6.7"
     id="path106"
     style="fill:#ffffff"
     inkscape:connector-curvature="0" />
  <path
     class="cls-1"
     d="m 53.418334,226.47189 -4.3,-3.1 -2.5,-1.8 0.2,-0.3 a 1.1,1.1 0 0 0 1,0.2 c 0.5,-0.1 0.8,-0.5 1.7,-1.8 l 3.9,-5.2 c 0.7,-1 0.9,-1.3 0.9,-1.7 a 1.2,1.2 0 0 0 -0.5,-0.9 l 0.2,-0.3 2.3,1.8 4.3,3.2 c 0,0 -0.9,1.2 -1.3,1.9 l -0.4,-0.2 a 1.5,1.5 0 0 0 0.3,-1.4 c -0.2,-0.4 -0.5,-0.7 -1.4,-1.4 l -1.3,-0.9 -2.7,3.7 1.3,1 a 2.2,2.2 0 0 0 1.4,0.6 1.4,1.4 0 0 0 1,-0.6 l 0.4,0.2 -1.2,1.5 -1,1.5 -0.3,-0.2 a 1.5,1.5 0 0 0 0.2,-1.1 2.2,2.2 0 0 0 -1.1,-1.3 l -1.2,-0.9 -2.5,3.4 c -0.5,0.7 -0.4,0.8 0.4,1.4 l 0.3,0.2 c 0.8,0.7 1.4,1.1 2.1,1 a 2.3,2.3 0 0 0 1.1,-0.8 l 0.3,0.2 -1.6,2.1"
     id="path108"
     style="fill:#ffffff"
     inkscape:connector-curvature="0" />
  <path
     class="cls-1"
     d="m 76.018334,225.47189 -1.7,1.5 -7.6,6.9 -1.4,-0.3 1,-10.1 a 11,11 0 0 0 0.1,-2.4 0.9,0.9 0 0 0 -0.5,-0.9 v -0.3 l 2.1,1.1 2.3,1 v 0.3 c -0.4,-0.2 -0.7,-0.3 -0.9,-0.2 a 0.3,0.3 0 0 0 -0.3,0.3 2.3,2.3 0 0 0 -0.2,1.1 l -0.7,6.2 c -0.1,1.2 -0.2,1.8 -0.2,1.8 a 12.1,12.1 0 0 1 1.3,-1.3 l 4.4,-4.4 0.8,-0.9 c 0,-0.1 0.1,-0.3 0,-0.4 -0.1,-0.1 -0.5,-0.4 -0.7,-0.6 l 0.2,-0.3 1.6,0.8 1.6,0.7 -0.2,0.3 a 1.1,1.1 0 0 0 -1,0.1"
     id="path110"
     style="fill:#ffffff"
     inkscape:connector-curvature="0" />
  <path
     class="cls-1"
     d="m 81.918334,239.37189 -2.4,-0.7 v -0.3 a 1.4,1.4 0 0 0 0.9,0 l 0.3,-0.3 v -3.9 l -3.4,-1 -1.6,2.2 a 3.7,3.7 0 0 0 -0.7,1 0.6,0.6 0 0 0 0.1,0.4 1.8,1.8 0 0 0 0.7,0.5 v 0.3 l -1.6,-0.6 -1.7,-0.5 v -0.3 a 1,1 0 0 0 1,-0.2 l 1.5,-1.7 6.5,-7.9 h 1.4 l 0.4,10.2 c 0.1,1.3 0.2,2.2 0.2,2.4 0,0.2 0.2,0.6 0.7,0.7 v 0.4 l -2.2,-0.8 m -1.3,-8.7 a 7.7,7.7 0 0 1 0,-1.8 l -2.7,3.6 2.8,0.9 z"
     id="path112"
     style="fill:#ffffff"
     inkscape:connector-curvature="0" />
  <path
     class="cls-1"
     d="m 95.118334,241.97189 -5.1,-0.8 -3.1,-0.5 v -0.3 a 1.6,1.6 0 0 0 1,-0.3 c 0.3,-0.3 0.4,-0.8 0.7,-2.4 l 1.1,-6.4 c 0.1,-1.2 0.2,-1.6 0,-1.9 a 1.3,1.3 0 0 0 -0.9,-0.6 v -0.4 l 2.7,0.5 a 20.9,20.9 0 0 0 2.8,0.4 v 0.4 c -0.8,-0.1 -1.2,0 -1.5,0.3 -0.3,0.3 -0.5,0.9 -0.7,2.4 l -1.2,7.1 c -0.1,0.8 0,0.9 1,1.1 h 0.4 c 1,0.1 1.6,0.2 2.2,-0.2 a 2.2,2.2 0 0 0 0.6,-1.2 h 0.4 c -0.2,0.8 -0.5,2.6 -0.5,2.6"
     id="path114"
     style="fill:#ffffff"
     inkscape:connector-curvature="0" />
  <path
     class="cls-1"
     d="m 104.51833,237.07189 a 2.9,2.9 0 0 1 -1.2,-0.2 v -0.4 h 0.4 a 2.1,2.1 0 0 0 1.4,-0.4 3.2,3.2 0 0 0 1,-2.5 c 0,-2.7 -1.5,-2.8 -2.5,-2.8 h -0.8 l -0.2,8.3 c -0.1,1.5 -0.1,2 0.2,2.4 0.3,0.4 0.6,0.6 1.4,0.6 v 0.4 l -3,-0.2 h -2.599995 v -0.3 a 1.4,1.4 0 0 0 1,-0.4 c 0.3,-0.4 0.3,-0.9 0.399995,-2.5 l 0.2,-6.5 c 0,-1.2 0,-1.6 -0.2,-1.9 a 1.3,1.3 0 0 0 -0.899995,-0.5 v -0.2 h 5.099995 a 8.6,8.6 0 0 1 2.1,0.2 c 1.4,0.4 2.6,1.2 2.5,3.2 -0.1,2 -2,3.6 -4.3,3.5"
     id="path116"
     style="fill:#ffffff"
     inkscape:connector-curvature="0" />
  <path
     class="cls-1"
     d="m 119.51833,241.67189 -2.4,0.3 v -0.3 c 0.5,-0.1 0.8,-0.2 0.9,-0.4 0.1,-0.2 0.1,-0.2 0.1,-0.4 a 2.2,2.2 0 0 0 -0.4,-1 l -1.1,-2.5 -3.5,0.3 -0.7,2.7 a 3.1,3.1 0 0 0 -0.2,1.1 c 0,0.2 0,0.3 0.2,0.4 a 0.8,0.8 0 0 0 0.8,0.1 v 0.4 h -1.8 l -1.7,0.2 v -0.3 a 1.1,1.1 0 0 0 0.9,-0.6 l 0.7,-2.2 3,-9.8 1.3,-0.4 4.3,9.2 1.1,2.1 a 1.2,1.2 0 0 0 1,0.5 v 0.3 l -2.4,0.2 m -4.5,-7.5 -0.7,-1.7 -1.1,4.4 2.9,-0.3 z"
     id="path118"
     style="fill:#ffffff"
     inkscape:connector-curvature="0" />
  <path
     class="cls-1"
     d="m 134.91833,238.37189 a 3.1,3.1 0 0 1 -3.4,-0.8 c -0.5,-0.4 -2.3,-1.8 -3.5,-2.9 l -0.8,0.2 0.6,2.5 a 4,4 0 0 0 0.7,1.8 1.7,1.7 0 0 0 1.1,0.2 v 0.3 l -2.4,0.6 a 10.9,10.9 0 0 0 -2.4,0.7 v -0.4 a 1.1,1.1 0 0 0 0.8,-0.6 c 0.2,-0.4 0.1,-0.9 -0.3,-2.5 l -1.7,-6.3 c -0.3,-1.1 -0.4,-1.5 -0.7,-1.7 a 1.3,1.3 0 0 0 -1,-0.3 v -0.3 l 2,-0.4 2.8,-0.8 a 8.7,8.7 0 0 1 2.1,-0.4 3.1,3.1 0 0 1 3.2,2.3 3.5,3.5 0 0 1 -1.8,4 l 4,2.8 c 1.1,0.8 1.9,1.3 2.7,1.1 v 0.3 l -2,0.6 m -8.5,-9.9 -0.8,0.3 1.4,5.4 0.9,-0.2 0.6,-0.3 c 0.3,-0.1 1.4,-0.7 0.8,-3.1 -0.6,-2.4 -2.2,-2.3 -2.9,-2.1"
     id="path120"
     style="fill:#ffffff"
     inkscape:connector-curvature="0" />
  <path
     class="cls-1"
     d="m 148.21833,232.97189 -2.3,1 v -0.3 l 0.7,-0.5 a 0.5,0.5 0 0 0 0,-0.5 l -0.7,-0.9 -1.9,-2 -3.2,1.5 0.2,2.7 a 2.3,2.3 0 0 0 0.2,1.1 c 0,0.2 0.1,0.3 0.3,0.4 0.2,0.1 0.6,-0.1 0.8,-0.2 l 0.2,0.3 -1.7,0.7 -1.6,0.7 v -0.3 a 0.9,0.9 0 0 0 0.6,-0.8 7.9,7.9 0 0 0 0,-2.3 l -0.2,-10.3 1.1,-0.7 7,7.3 1.7,1.7 c 0.2,0.1 0.6,0.4 1,0.2 l 0.2,0.3 -2.2,0.9 m -6.7,-5.8 -1.1,-1.3 0.3,4.5 2.6,-1.2 z"
     id="path122"
     style="fill:#ffffff"
     inkscape:connector-curvature="0" />
  <path
     class="cls-1"
     d="m 149.61833,215.37189 -2.8,3.3 -0.4,-0.2 1,-3.6 h 0.1 l 2,0.3 z m 0.8,3.1 c -0.1,0.4 0.1,0.9 1,2.3 l 3.3,5.6 c 0.6,1 0.8,1.3 1.1,1.5 a 1.5,1.5 0 0 0 1.1,-0.1 l 0.2,0.3 -2.3,1.2 a 19.1,19.1 0 0 0 -2.1,1.4 l -0.2,-0.3 a 1.6,1.6 0 0 0 0.6,-0.9 c 0.1,-0.4 -0.1,-0.9 -1,-2.3 l -3.3,-5.6 c -0.6,-1 -0.8,-1.3 -1.1,-1.5 a 1.5,1.5 0 0 0 -1.1,0.1 l -0.2,-0.3 2.3,-1.2 2.1,-1.3 0.2,0.2 a 1.6,1.6 0 0 0 -0.6,0.9"
     id="path124"
     style="fill:#ffffff"
     inkscape:connector-curvature="0" />
  <path
     class="cls-1"
     d="m 162.51833,224.37189 a 11,11 0 0 1 -2.6,1.5 l -0.2,-0.3 c -0.5,-0.7 -0.9,-1.1 -1.2,-1.6 l 0.3,-0.2 a 1.9,1.9 0 0 0 1.3,0.7 2.9,2.9 0 0 0 1.8,-0.7 c 2,-1.5 1.1,-2.8 0.8,-3.1 -0.3,-0.3 -1.6,-0.9 -2.8,-0.8 h -1.3 a 3.6,3.6 0 0 1 -3.8,-1.4 c -0.6,-0.8 -1.6,-2.9 1.5,-5.2 a 13.7,13.7 0 0 1 2.5,-1.6 l 0.5,0.8 0.9,1.1 -0.3,0.2 a 3,3 0 0 0 -1.1,-0.6 3.2,3.2 0 0 0 -1.9,0.7 c -1.6,1.2 -1.1,2.2 -0.7,2.7 0.4,0.5 1.3,0.8 2.5,0.7 h 1.4 c 1.7,-0.2 3,-0.1 4.1,1.4 1.1,1.5 0.5,4.1 -1.7,5.7"
     id="path126"
     style="fill:#ffffff"
     inkscape:connector-curvature="0" />
  <path
     class="cls-1"
     d="m 173.91833,214.77189 c -2.7,2.7 -6,2.7 -8.7,0 -2.7,-2.7 -2.9,-6.4 -0.1,-9.1 2.8,-2.7 6.1,-2.7 8.7,-0.1 2.6,2.6 2.9,6.4 0.1,9.2 m -8.3,-8.5 c -1.8,1.8 -0.7,4.2 1.4,6.3 2.1,2.1 4.7,3.2 6.4,1.5 1.7,-1.7 0.7,-4.2 -1.4,-6.3 -2.1,-2.1 -4.7,-3.2 -6.4,-1.5"
     id="path128"
     style="fill:#ffffff"
     inkscape:connector-curvature="0" />
  <path
     class="cls-1"
     d="m 23.718334,179.17188 a 2.7,2.7 0 0 1 0.4,1.2 h -0.4 a 1,1 0 0 0 -0.1,-0.4 2.4,2.4 0 0 0 -0.9,-1.1 3.4,3.4 0 0 0 -2.6,0.1 c -2.6,1 -2,2.5 -1.7,3.4 a 3.2,3.2 0 0 0 0.4,0.7 l 7.7,-3.1 c 1.3,-0.5 1.9,-0.7 2.1,-1.1 a 2.2,2.2 0 0 0 0,-1.6 h 0.3 a 23.3,23.3 0 0 0 1.1,2.8 14.6,14.6 0 0 0 1,2.3 h -0.3 a 1.9,1.9 0 0 0 -0.8,-0.7 c -0.4,-0.1 -0.9,0.1 -2.4,0.7 l -6,2.4 -1.7,0.9 a 1.4,1.4 0 0 0 0,1.1 h -0.4 a 13.1,13.1 0 0 0 -0.8,-2.1 l -1.1,-2.6 a 12.4,12.4 0 0 1 -0.6,-2 3.2,3.2 0 0 1 1.9,-3.7 c 2.3,-0.9 4.1,0.5 4.9,2.6"
     id="path130"
     style="fill:#ffffff"
     inkscape:connector-curvature="0" />
  <path
     class="cls-1"
     d="m 25.418334,165.57188 c 0.9,3.8 -0.9,6.5 -4.6,7.4 a 6.1,6.1 0 0 1 -7.8,-4.8 c -0.9,-3.8 0.9,-6.5 4.6,-7.4 3.7,-0.9 6.9,0.9 7.8,4.8 m -11.6,2.5 c 0.6,2.5 3.2,2.9 6.1,2.2 2.9,-0.7 5.2,-2.3 4.7,-4.6 -0.5,-2.3 -3.2,-2.9 -6.1,-2.2 -2.9,0.7 -5.2,2.3 -4.7,4.6"
     id="path132"
     style="fill:#ffffff"
     inkscape:connector-curvature="0" />
  <path
     class="cls-1"
     d="m 11.218333,146.37188 c 0.400001,0.3 0.900001,0.3 2.500001,0.3 l 9.3,-0.6 v 1.1 l -9.1,7.7 -0.7,0.5 7.5,-0.4 a 4,4 0 0 0 1.9,-0.4 1.2,1.2 0 0 0 0.4,-1 h 0.3 v 1.8 c 0.1,0.6 0.1,1.1 0.2,1.9 h -0.3 a 1.2,1.2 0 0 0 -0.5,-0.9 c -0.4,-0.3 -0.9,-0.3 -2.5,-0.2 l -6.5,0.3 c -1.2,0.1 -1.6,0.2 -1.8,0.4 a 1.2,1.2 0 0 0 -0.500001,1 h -0.3 v -2.2 c -0.1,-0.3 -0.1,-1.1 -0.2,-1.6 l 7.000001,-5.9 0.8,-0.6 -5.5,0.3 a 3.1,3.1 0 0 0 -1.800001,0.3 1.3,1.3 0 0 0 -0.4,1 h -0.4 v -1.8 a 12.4,12.4 0 0 0 -0.2,-1.8 h 0.4 a 1.1,1.1 0 0 0 0.4,0.9"
     id="path134"
     style="fill:#ffffff"
     inkscape:connector-curvature="0" />
  <path
     class="cls-1"
     d="m 14.018334,133.27188 a 1.6,1.6 0 0 0 -1.4,0.6 4.4,4.4 0 0 0 -0.4,1.9 v 0.7 l 8.8,0.8 c 1.1,0.1 1.6,0.1 1.8,-0.1 0.2,-0.2 0.6,-1.1 0.6,-1.2 h 0.4 a 28.5,28.5 0 0 0 -0.3,2.9 24.8,24.8 0 0 0 -0.2,2.9 h -0.4 c 0,-0.2 0.1,-1 -0.3,-1.4 -0.4,-0.4 -0.8,-0.4 -2.4,-0.6 l -8.2,-0.7 v 0.7 a 3.4,3.4 0 0 0 0.1,1.9 1.5,1.5 0 0 0 1.2,0.8 v 0.4 l -2.400001,-0.3 0.900001,-9.8 2.4,0.2 z"
     id="path136"
     style="fill:#ffffff"
     inkscape:connector-curvature="0" />
  <path
     class="cls-1"
     d="m 13.718334,126.07188 c 0.2,0.4 0.8,0.5 2.3,0.8 l 6.4,1.3 a 3.5,3.5 0 0 0 1.9,0.2 1.3,1.3 0 0 0 0.6,-0.9 h 0.4 a 22.7,22.7 0 0 0 -0.6,2.5 c -0.2,0.6 -0.3,1.7 -0.5,2.5 h -0.3 a 1.2,1.2 0 0 0 -0.2,-1 c -0.3,-0.4 -0.8,-0.5 -2.4,-0.8 l -6.3,-1.3 c -1.2,-0.3 -1.6,-0.3 -1.9,-0.2 -0.3,0.1 -0.5,0.4 -0.7,0.9 h -0.3 c 0.2,-0.7 0.4,-1.8 0.6,-2.5 0.2,-0.7 0.3,-1.7 0.4,-2.5 h 0.3 a 1.4,1.4 0 0 0 0.3,1"
     id="path138"
     style="fill:#ffffff"
     inkscape:connector-curvature="0" />
  <path
     class="cls-1"
     d="m 18.718334,114.57188 a 1.6,1.6 0 0 0 -1.4,0.3 3.2,3.2 0 0 0 -0.8,1.7 l -0.5,1.5 4.4,1.4 0.5,-1.5 a 2,2 0 0 0 0.1,-1.5 c -0.1,-0.4 -0.4,-0.6 -0.9,-0.9 v -0.3 l 1.8,0.6 1.8,0.5 -0.2,0.4 a 1.4,1.4 0 0 0 -1.1,0.1 c -0.4,0.2 -0.6,0.8 -0.8,1.4 l -0.5,1.5 3.2,1 c 1.1,0.4 1.5,0.4 1.8,0.3 0.3,-0.1 0.8,-0.9 0.9,-1.1 h 0.3 c -0.2,0.7 -0.7,2.1 -0.9,2.7 l -0.7,2.5 h -0.3 c 0,-0.2 0.1,-0.7 -0.2,-1 -0.3,-0.3 -0.7,-0.6 -2.2,-1.1 l -6.2,-2 a 4,4 0 0 0 -1.9,-0.3 1.4,1.4 0 0 0 -0.7,0.8 l -0.3,-0.2 0.9,-2.7 1.6,-5.1 2.4,0.7 z"
     id="path140"
     style="fill:#ffffff"
     inkscape:connector-curvature="0" />
  <path
     class="cls-1"
     d="m 20.118334,106.97188 c 0.2,0.4 0.7,0.6 2.2,1.3 l 5.9,2.6 c 1.1,0.5 1.5,0.6 1.8,0.5 0.3,-0.1 0.6,-0.2 0.9,-0.7 l 0.3,0.2 a 12,12 0 0 0 -1.1,2.3 l -1,2.3 h -0.3 a 1.1,1.1 0 0 0 0,-1 c -0.2,-0.5 -0.7,-0.7 -2.2,-1.4 l -5.9,-2.6 c -1.1,-0.4 -1.5,-0.6 -1.8,-0.5 -0.3,0.1 -0.6,0.2 -0.8,0.7 l -0.3,-0.2 1.1,-2.3 c 0.2,-0.6 0.7,-1.6 0.9,-2.3 h 0.3 a 2,2 0 0 0 0,1.1"
     id="path142"
     style="fill:#ffffff"
     inkscape:connector-curvature="0" />
  <path
     class="cls-1"
     d="m 28.518334,95.371885 a 1.4,1.4 0 0 0 -1.2,-0.2 3.5,3.5 0 0 0 -1.6,1.6 c -0.9,1.4 -1.9,3.799995 2.5,6.399995 2.7,1.6 5.2,1.8 6.8,-1 a 2.5,2.5 0 0 0 0.4,-2.1 1.3,1.3 0 0 0 -0.7,-0.899995 l 0.2,-0.4 a 10.1,10.1 0 0 0 1.7,1.1 l 0.2,0.199995 a 11.9,11.9 0 0 1 -1.2,2.9 6.8,6.8 0 0 1 -4.7,3.7 5.5,5.5 0 0 1 -3.9,-1 6.3,6.3 0 0 1 -3.2,-6.799995 10.7,10.7 0 0 1 1.1,-2.6 c 0.8,-1.3 1.6,-2.3 1.7,-2.5 l 1,0.6 1.1,0.6 z"
     id="path144"
     style="fill:#ffffff"
     inkscape:connector-curvature="0" />
  <path
     class="cls-1"
     d="m 31.918334,87.771885 c 0.1,0.5 0.5,0.8 1.8,1.8 l 5.1,4 c 1,0.7 1.3,0.9 1.7,0.9 a 1.2,1.2 0 0 0 0.9,-0.5 l 0.3,0.2 -1.6,2 -1.5,2.1 -0.3,-0.2 a 1.1,1.1 0 0 0 0.3,-1 c -0.1,-0.5 -0.5,-0.8 -1.8,-1.8 l -5.2,-3.9 c -0.9,-0.8 -1.3,-1 -1.6,-1 a 1.4,1.4 0 0 0 -1,0.5 l -0.2,-0.2 c 0.4,-0.6 1.2,-1.5 1.6,-2 l 1.4,-2 0.3,0.2 a 1.2,1.2 0 0 0 -0.2,0.9"
     id="path146"
     style="fill:#ffffff"
     inkscape:connector-curvature="0" />
  <path
     class="cls-1"
     d="m 49.018334,86.071885 c -0.3,0.5 -1.3,1.5 -1.6,1.9 l -0.3,-0.2 c 0.3,-0.4 0.5,-0.6 0.5,-0.8 a 0.5,0.5 0 0 0 -0.2,-0.4 l -1,-0.6 -2.5,-1.2 -2.4,2.6 1.2,2.5 0.5,1 h 0.4 c 0.3,0 0.6,-0.3 0.8,-0.4 l 0.2,0.2 -1.3,1.3 -1.1,1.3 -0.3,-0.2 a 1.1,1.1 0 0 0 0.3,-1 l -0.8,-2.1 -4.1,-9.5 0.8,-1.1 9.2,4.2 a 11.5,11.5 0 0 0 2.2,0.9 0.8,0.8 0 0 0 1,-0.2 l 0.2,0.2 -1.7,1.6 m -8.3,-2.8 -1.5,-0.8 1.9,4.1 2,-2.1 z"
     id="path148"
     style="fill:#ffffff"
     inkscape:connector-curvature="0" />
  <path
     class="cls-1"
     d="m 58.618334,64.471883 c 0,0.5 0.2,1 1.1,2.3 l 2.1,3.200001 a 7.7,7.7 0 0 1 1.4,2.700001 c 0.6,2.4 -1.4,3.9 -2.7,4.7 -1.3,0.8 -4.1,1.4 -5.2,0.6 a 9.1,9.1 0 0 1 -2,-2.4 l -2.4,-3.7 c -0.7,-0.9 -0.9,-1.300001 -1.2,-1.400001 a 1.4,1.4 0 0 0 -1.1,0.1 l -0.2,-0.2 2.2,-1.4 2,-1.400001 0.2,0.300001 a 1,1 0 0 0 -0.5,0.8 c -0.1,0.5 0.2,0.9 1.1,2.300001 l 2.7,4.2 c 1,1.4 2,2.8 4.3,1.3 2.3,-1.5 1.4,-3.3 0.5,-4.5 l -3,-4.700002 c -0.7,-0.9 -0.9,-1.3 -1.2,-1.4 a 1.4,1.4 0 0 0 -1.1,0.1 l -0.2,-0.2 1.8,-1.1 1.8,-1.3 0.2,0.3 a 1.3,1.3 0 0 0 -0.6,0.8"
     id="path150"
     style="fill:#ffffff"
     inkscape:connector-curvature="0" />
  <path
     class="cls-1"
     d="m 73.318334,57.671883 c -0.2,0.4 0,0.9 0.6,2.4 l 3.7,8.500001 -0.9,0.4 -10.4,-5.900001 -0.7,-0.4 3,6.800001 a 4.5,4.5 0 0 0 0.9,1.700001 1.4,1.4 0 0 0 1.1,0 v 0.3 l -1.6,0.7 -1.7,0.8 v -0.3 a 1.3,1.3 0 0 0 0.6,-0.8 c 0.2,-0.4 0,-0.9 -0.7,-2.400001 l -2.5,-6.000001 c -0.5,-1 -0.7,-1.4 -1,-1.6 a 1.3,1.3 0 0 0 -1.1,0 v -0.3 l 2,-0.8 1.5,-0.8 7.9,4.5 0.9,0.6 -2.2,-5 c -0.4,-1.1 -0.7,-1.5 -0.9,-1.6 a 1,1 0 0 0 -1.1,-0.1 l -0.2,-0.3 1.8,-0.7 a 7.9,7.9 0 0 0 1.6,-0.8 v 0.3 a 1.3,1.3 0 0 0 -0.6,0.8"
     id="path152"
     style="fill:#ffffff"
     inkscape:connector-curvature="0" />
  <path
     class="cls-1"
     d="m 81.518334,55.171883 c -0.2,0.4 -0.1,1 0.3,2.5 l 1.8,6.2 c 0.4,1.2 0.5,1.6 0.8,1.8 a 1.4,1.4 0 0 0 1,0.2 v 0.3 l -2.4,0.6 -2.4,0.8 v -0.3 a 1.7,1.7 0 0 0 0.8,-0.7 c 0.2,-0.4 0,-0.9 -0.4,-2.5 l -1.8,-6.2 c -0.3,-1.1 -0.5,-1.5 -0.8,-1.7 a 1,1 0 0 0 -1,-0.2 v -0.4 l 2.4,-0.6 2.4,-0.8 v 0.4 a 0.8,0.8 0 0 0 -0.7,0.6"
     id="path154"
     style="fill:#ffffff"
     inkscape:connector-curvature="0" />
  <path
     class="cls-1"
     d="m 96.218334,52.371883 a 15.2,15.2 0 0 0 -0.5,2.2 l -2.3,10 -1.4,0.5 -4.9,-8.9 -1.3,-2.1 a 1,1 0 0 0 -0.9,-0.3 v -0.4 l 2.4,-0.3 2.4,-0.5 v 0.4 a 1,1 0 0 0 -0.8,0.3 0.4,0.4 0 0 0 -0.1,0.5 2.2,2.2 0 0 0 0.4,1 l 3,5.5 a 9.1,9.1 0 0 1 0.8,1.6 l 0.3,-1.8 1.2,-6.2 c 0.1,-0.6 0.2,-0.9 0.1,-1.1 -0.1,-0.2 0,-0.3 -0.2,-0.4 -0.2,-0.1 -0.6,-0.1 -0.9,-0.1 v -0.3 l 1.8,-0.2 1.700001,-0.4 v 0.3 a 1.1,1.1 0 0 0 -0.800001,0.7"
     id="path156"
     style="fill:#ffffff"
     inkscape:connector-curvature="0" />
  <path
     class="cls-1"
     d="m 108.21833,63.471883 h -8.399995 v -0.3 a 1.1,1.1 0 0 0 0.899995,-0.4 c 0.4,-0.4 0.4,-0.9 0.3,-2.6 v -6.2 c -0.1,-1.2 -0.1,-1.6 -0.3,-1.9 a 1.9,1.9 0 0 0 -0.999995,-0.5 v -0.3 h 8.299995 c 0,0 0,1.5 0.1,2.4 h -0.5 a 1.4,1.4 0 0 0 -0.7,-1.3 4.2,4.2 0 0 0 -1.9,-0.2 h -1.6 v 4.7 h 1.6 a 2.8,2.8 0 0 0 1.5,-0.3 1.5,1.5 0 0 0 0.5,-1.2 h 0.4 v 1.9 c 0,1.2 0.1,1.4 0.1,1.8 h -0.4 c -0.1,-0.5 -0.2,-0.8 -0.5,-1 a 2.6,2.6 0 0 0 -1.6,-0.3 h -1.4 v 4.2 c 0,0.8 0.1,0.9 1.1,0.9 h 0.4 c 1,0 1.8,-0.1 2.2,-0.6 a 1.5,1.5 0 0 0 0.4,-1.2 h 0.4 v 2.6"
     id="path158"
     style="fill:#ffffff"
     inkscape:connector-curvature="0" />
  <path
     class="cls-1"
     d="m 121.11833,64.871883 a 3.4,3.4 0 0 1 -2.9,-2 l -2.3,-4 h -0.7 l -0.4,2.5 c -0.1,1.2 -0.1,1.6 0.1,1.9 0.2,0.3 0.3,0.5 0.8,0.6 v 0.4 l -2.4,-0.4 -2.5,-0.3 v -0.3 a 1.3,1.3 0 0 0 1,-0.3 c 0.3,-0.3 0.4,-0.8 0.6,-2.4 l 0.8,-6.5 c 0.2,-1.1 0.2,-1.6 0,-1.9 a 1,1 0 0 0 -0.9,-0.5 v -0.4 l 2,0.3 2.8,0.3 a 10.4,10.4 0 0 1 2.1,0.5 3,3 0 0 1 2.2,3.3 3.5,3.5 0 0 1 -3.2,3 l 2.7,4.1 c 0.8,1.1 1.4,1.9 2.1,2 v 0.4 l -2,-0.2 m -4.3,-12.4 h -0.9 l -0.6,5.5 h 0.8 a 1.1,1.1 0 0 0 0.8,0 c 0.2,0 1.5,-0.1 1.8,-2.6 0.3,-2.5 -1.2,-2.9 -1.9,-3"
     id="path160"
     style="fill:#ffffff"
     inkscape:connector-curvature="0" />
  <path
     class="cls-1"
     d="m 127.01833,66.371883 a 13.1,13.1 0 0 1 -2.7,-1.2 v -0.3 l 0.4,-2 h 0.4 a 1.9,1.9 0 0 0 0.3,1.5 3.2,3.2 0 0 0 1.7,1 c 2.3,0.6 2.8,-0.9 2.9,-1.3 0.1,-0.4 -0.3,-1.8 -1.2,-2.7 l -0.8,-0.9 c -1.1,-1.2 -1.7,-2.2 -1.3,-3.9 0.4,-1.7 1.3,-3.1 5.1,-2.1 a 23.4,23.4 0 0 1 2.8,1 l -0.4,1 a 13.3,13.3 0 0 1 -0.3,1.3 h -0.3 a 1.6,1.6 0 0 0 -0.2,-1.2 2.5,2.5 0 0 0 -1.7,-1.1 c -1.8,-0.5 -2.3,0.5 -2.5,1.1 -0.2,0.6 0.2,1.5 1,2.4 l 1,1 c 1.2,1.3 1.9,2.3 1.4,4.1 -0.5,1.8 -2.9,3 -5.6,2.3"
     id="path162"
     style="fill:#ffffff"
     inkscape:connector-curvature="0" />
  <path
     class="cls-1"
     d="m 142.11833,58.971883 c -0.4,0.2 -0.6,0.7 -1.2,2.2 l -2.3,6.1 c -0.5,1.100001 -0.6,1.500001 -0.5,1.800001 a 1.3,1.3 0 0 0 0.7,0.8 v 0.3 l -2.3,-1 -2.4,-0.8 v -0.3 a 1.9,1.9 0 0 0 1,-0.1 c 0.4,-0.2 0.7,-0.700001 1.2,-2.200001 l 2.4,-6 a 5.7,5.7 0 0 0 0.5,-1.9 1.9,1.9 0 0 0 -0.8,-0.8 l 0.2,-0.3 2.3,1 2.4,0.9 v 0.3 a 1.4,1.4 0 0 0 -1.1,0"
     id="path164"
     style="fill:#ffffff"
     inkscape:connector-curvature="0" />
  <path
     class="cls-1"
     d="m 147.81833,74.471885 -2.8,-1.3 -2.2,-1.2 -1.9,-1 v -0.300001 a 2,2 0 0 0 1.1,0.100001 c 0.4,-0.200001 0.7,-0.600001 1.5,-2.100001 l 3.1,-5.600001 a 6.2,6.2 0 0 0 0.7,-1.8 1.6,1.6 0 0 0 -0.6,-0.9 v -0.3 l 1.8,1.1 2.7,1.4 c 1.5,0.8 6,3.5 3.3,8.500002 -2.7,5 -5.1,3.8 -6.9,3.4 m 3.2,-11.100002 -1.2,-0.6 -4.6,8.400002 c -0.3,0.5 -0.4,0.8 -0.1,1 0.3,0.2 0.4,0.3 0.8,0.5 2.5,1.4 4.3,0.7 6.2,-2.800001 1.9,-3.500001 0.3,-5.800001 -1.1,-6.500001"
     id="path166"
     style="fill:#ffffff"
     inkscape:connector-curvature="0" />
  <path
     class="cls-1"
     d="m 160.01833,83.171885 -2,-1.5 0.2,-0.3 a 1.2,1.2 0 0 0 0.8,0.4 l 0.4,-0.2 a 3.4,3.4 0 0 0 0.4,-1 l 0.9,-2.6 -2.8,-2.2 -2.3,1.5 -0.9,0.6 c -0.1,0.2 -0.2,0.3 -0.2,0.5 l 0.6,0.7 -0.2,0.2 -1.4,-1.1 -1.4,-1 0.2,-0.3 a 1.1,1.1 0 0 0 1.1,0.1 l 1.9,-1 8.9,-5.1 1.3,0.6 -3.2,9.7 c -0.4,1.3 -0.6,2.1 -0.7,2.3 a 1,1 0 0 0 0.4,0.9 l -0.2,0.3 -1.8,-1.5 m 1.8,-8.6 a 6.3,6.3 0 0 1 0.7,-1.6 l -3.8,2.3 2.3,1.8 z"
     id="path168"
     style="fill:#ffffff"
     inkscape:connector-curvature="0" />
  <path
     class="cls-1"
     d="m 168.31833,90.971885 a 10.7,10.7 0 0 1 -2.3,-2 l -1.7,-1.9 c -0.4,-0.5 -1,-1 -1.5,-1.5 l 0.2,-0.3 a 1.3,1.3 0 0 0 1,0.4 c 0.4,0 0.8,-0.3 2,-1.4 l 4.8,-4.5 c 0.8,-0.8 1.1,-1.1 1.2,-1.4 a 1.3,1.3 0 0 0 -0.3,-1 l 0.2,-0.3 a 12.1,12.1 0 0 0 1.4,1.6 l 2.1,2.2 c 1.2,1.3 4.6,5.2 0.5,9.1 -4.1,3.9 -6,2 -7.6,1 m 6.5,-9.5 -1,-1 -7,6.6 c -0.4,0.4 -0.6,0.6 -0.4,1 l 0.6,0.7 c 1.9,2.1 3.9,1.9 6.7,-0.7 2.8,-2.6 2.2,-5.4 1.1,-6.6"
     id="path170"
     style="fill:#ffffff"
     inkscape:connector-curvature="0" />
  <path
     class="cls-1"
     d="m 188.71833,103.37188 a 1.5,1.5 0 0 0 0.7,-0.9 3.8,3.8 0 0 0 -0.6,-2.2 c -0.8,-1.399995 -2.4,-3.399995 -6.9,-0.799995 -2.7,1.599995 -4,3.599995 -2.4,6.299995 a 3.1,3.1 0 0 0 1.7,1.5 1.5,1.5 0 0 0 1.2,-0.3 l 0.2,0.4 -1.8,0.9 -0.3,0.2 a 12.2,12.2 0 0 1 -2,-2.5 c -1.2,-2.1 -1.6,-4.1 -0.9,-5.9 a 6.6,6.6 0 0 1 10.2,-2.399995 8.7,8.7 0 0 1 1.8,2.2 c 0.7,1.299995 1.2,2.499995 1.3,2.699995 l -1,0.5 -1,0.7 z"
     id="path172"
     style="fill:#ffffff"
     inkscape:connector-curvature="0" />
  <path
     class="cls-1"
     d="m 184.61833,118.77188 c -0.2,-0.6 -0.8,-1.8 -1,-2.3 l 0.3,-0.2 a 2.1,2.1 0 0 0 0.5,0.8 h 0.5 l 0.9,-0.7 2,-1.8 -1.3,-3.3 h -2.8 l -1.1,0.2 -0.3,0.2 c -0.1,0.3 0.1,0.7 0.1,0.9 l -0.3,0.2 a 8.5,8.5 0 0 0 -0.6,-1.7 7.7,7.7 0 0 0 -0.7,-1.6 h 0.3 a 1.2,1.2 0 0 0 0.9,0.6 h 12.5 l 0.7,1.1 -7.6,6.8 -1.7,1.6 a 1.2,1.2 0 0 0 -0.2,1.1 h -0.3 l -0.8,-2.2 m 5.9,-6.5 1.4,-1.1 h -4.5 l 1.1,2.7 z"
     id="path174"
     style="fill:#ffffff"
     inkscape:connector-curvature="0" />
  <path
     class="cls-1"
     d="m 197.41833,127.87188 a 1.3,1.3 0 0 0 1.1,-0.9 3.9,3.9 0 0 0 -0.2,-2 l -0.2,-0.6 -8.5,2.2 c -1.2,0.3 -1.5,0.4 -1.7,0.7 -0.2,0.3 -0.2,1.2 -0.2,1.4 h -0.3 c -0.2,-0.7 -0.5,-2.2 -0.7,-2.8 l -0.8,-2.9 h 0.3 c 0.1,0.1 0.3,0.9 0.8,1.1 0.5,0.2 0.9,0.1 2.5,-0.3 l 8,-2.1 -0.2,-0.6 c -0.3,-1.2 -0.4,-1.5 -0.8,-1.9 a 2,2 0 0 0 -1.4,-0.3 v -0.3 l 2.4,-0.6 2.5,9.6 a 19.7,19.7 0 0 0 -2.4,0.6 z"
     id="path176"
     style="fill:#ffffff"
     inkscape:connector-curvature="0" />
  <path
     class="cls-1"
     d="m 188.71833,138.17188 c -0.4,-3.9 1.7,-6.4 5.5,-6.8 3.8,-0.4 6.7,1.8 7.1,5.7 0.4,3.9 -1.7,6.4 -5.5,6.8 -3.8,0.4 -6.7,-1.8 -7.1,-5.7 m 11.8,-1.1 c -0.3,-2.5 -2.8,-3.2 -5.8,-2.9 -3,0.3 -5.4,1.6 -5.2,4 0.2,2.4 2.8,3.2 5.8,2.9 3,-0.3 5.4,-1.6 5.2,-4 m 3.3,2.2 -1.8,-3.9 0.3,-0.2 2.8,2.3 v 0.2 l -1.1,1.7 z"
     id="path178"
     style="fill:#ffffff"
     inkscape:connector-curvature="0" />
  <path
     class="cls-1"
     d="m 189.01833,154.97188 0.3,-5.1 c 0,-1.1 0.1,-2.1 0.1,-3.2 h 0.3 a 1.4,1.4 0 0 0 0.4,0.9 c 0.3,0.3 0.9,0.4 2.5,0.5 l 6.5,0.3 c 1.1,0 1.6,0 1.8,-0.2 0.2,-0.2 0.5,-0.4 0.6,-0.9 h 0.3 a 26.4,26.4 0 0 0 -0.2,2.8 c 0,0.6 -0.1,2 -0.1,2.7 h -0.3 a 1.9,1.9 0 0 0 -0.5,-1.5 c -0.4,-0.3 -1,-0.3 -2.4,-0.4 l -7.2,-0.3 c -0.9,-0.1 -1,0.1 -1.1,1.1 v 0.3 c 0,1.1 0,1.7 0.4,2.2 a 1.7,1.7 0 0 0 1.3,0.5 v 0.4 l -2.6,-0.2"
     id="path180"
     style="fill:#ffffff"
     inkscape:connector-curvature="0" />
  <path
     class="cls-1"
     d="m 199.51833,163.17188 c -0.3,-0.4 -0.8,-0.5 -2.4,-0.8 l -6.4,-1 c -1.1,-0.2 -1.6,-0.2 -1.9,0 a 1.1,1.1 0 0 0 -0.6,0.8 h -0.3 l 0.4,-2.5 a 21.7,21.7 0 0 0 0.4,-2.5 h 0.3 a 1.3,1.3 0 0 0 0.3,1 c 0.3,0.4 0.8,0.5 2.4,0.7 l 6.4,1 a 4.2,4.2 0 0 0 1.9,0.1 1.3,1.3 0 0 0 0.6,-0.9 h 0.3 l -0.4,2.5 c -0.1,0.6 -0.3,1.7 -0.4,2.5 h -0.3 a 1.2,1.2 0 0 0 -0.3,-0.9"
     id="path182"
     style="fill:#ffffff"
     inkscape:connector-curvature="0" />
  <path
     class="cls-1"
     d="m 194.41833,176.47188 a 1.6,1.6 0 0 0 1.2,-0.2 3.3,3.3 0 0 0 1.2,-1.9 c 0.5,-1.6 0.8,-4.1 -4.1,-5.5 -3.1,-0.9 -5.4,-0.4 -6.3,2.6 a 2.4,2.4 0 0 0 0.1,2.2 1.5,1.5 0 0 0 1,0.7 v 0.4 l -1.9,-0.6 h -0.4 a 17.7,17.7 0 0 1 0.5,-3.2 c 0.7,-2.3 1.9,-4 3.6,-4.7 a 5.5,5.5 0 0 1 4,-0.1 6.2,6.2 0 0 1 4.8,5.8 7.5,7.5 0 0 1 -0.4,2.8 17,17 0 0 1 -1,2.8 l -1.1,-0.3 -1.2,-0.3 z"
     id="path184"
     style="fill:#ffffff"
     inkscape:connector-curvature="0" />
  <path
     class="cls-1"
     d="m 180.51833,184.07188 a 22.9,22.9 0 0 0 1,-2.3 h 0.3 c -0.2,0.5 -0.2,0.8 -0.1,0.9 0.1,0.1 0.1,0.3 0.3,0.4 l 1.1,0.2 2.7,0.2 1.4,-3.2 -1.9,-2 -0.9,-0.7 h -0.4 c -0.3,0.1 -0.5,0.5 -0.6,0.7 h -0.3 l 0.8,-1.6 a 12.2,12.2 0 0 0 0.7,-1.7 l 0.3,0.2 a 0.8,0.8 0 0 0 0.1,1 7.6,7.6 0 0 0 1.5,1.7 l 7,7.5 -0.3,1.3 -10.1,-0.8 h -2.4 a 1,1 0 0 0 -0.9,0.6 l -0.3,-0.2 a 13.6,13.6 0 0 0 1,-2.1 m 8.8,-0.2 a 6.9,6.9 0 0 1 1.8,0.3 l -3.2,-3.2 -1.2,2.7 z"
     id="path186"
     style="fill:#ffffff"
     inkscape:connector-curvature="0" />
  <path
     class="cls-4"
     d="m 112.21833,101.67188 h 2 a 3,3 0 0 1 -1.2,-1.999995 c 0,-1.6 2,-2.7 2,-4.8 0,-2.1 -1.5,-3.3 -1.5,-5.2 0,-1.9 1.3,-3 1.3,-4.4 a 4.1,4.1 0 0 0 -0.8,-2.4 h -1.8 a 4.9,4.9 0 0 1 0.8,2.4 c 0,1.4 -1.2,2.4 -1.2,4.5 0,2.1 1.6,3.5 1.6,5.1 0,1.6 -2,2.9 -2,4.8 a 3.1,3.1 0 0 0 0.8,1.999995"
     id="path188"
     style="fill:#ffffff"
     inkscape:connector-curvature="0" />
  <path
     class="cls-4"
     d="m 123.61833,200.17189 a 4.2,4.2 0 0 0 -3.1,-0.2 3.8,3.8 0 0 0 -2.3,2 4.2,4.2 0 0 0 -0.3,3.1 4.8,4.8 0 0 0 2,2.4 3.9,3.9 0 0 0 2.6,0.3 h 0.5 a 4,4 0 0 0 2.4,-2 3.7,3.7 0 0 0 0.2,-3.1 4,4 0 0 0 -2,-2.4 m 0.5,4.8 a 2.6162951,2.6162951 0 0 1 -4.7,-2.3 2.6,2.6 0 0 1 1.6,-1.3 2.4,2.4 0 0 1 2,0.1 3.2,3.2 0 0 1 1.3,1.5 2.7,2.7 0 0 1 -0.2,2"
     id="path212"
     style="fill:#ffffff"
     inkscape:connector-curvature="0" />
  <path
     class="cls-4"
     d="m 141.01833,194.87189 a 3.6,3.6 0 0 0 -2.5,-0.2 3.3,3.3 0 0 0 -2.1,4.1 3.2,3.2 0 0 0 1.7,1.9 3.4,3.4 0 0 0 2,0.3 h 0.4 a 3.1,3.1 0 0 0 1.9,-1.6 3.1,3.1 0 0 0 0.2,-2.5 3.3,3.3 0 0 0 -1.6,-1.9 m 0.2,3.8 a 1.8,1.8 0 0 1 -1.1,1 1.7,1.7 0 0 1 -1.4,-0.2 1.8,1.8 0 0 1 -1,-1.1 1.9,1.9 0 0 1 1.2,-2.4 h 0.3 a 2.5,2.5 0 0 1 1.2,0.2 1.8,1.8 0 0 1 1,1.1 2,2 0 0 1 -0.2,1.5"
     id="path214"
     style="fill:#ffffff"
     inkscape:connector-curvature="0" />
</svg>
